# AST/ASF file generated using VICON BodyLanguage
# -----------------------------------------------
:version 1.10
:name VICON
:units
  mass 1.0
  length 0.45
  angle deg
:documentation
   .ast/.asf automatically generated from VICON data using
   VICON BodyBuilder and BodyLanguage model FoxedUp or BRILLIANT.MOD
:root
   order TX TY TZ RX RY RZ
   axis XYZ
   position 0 0 0  
   orientation 0 0 0 
:bonedata
  begin
     id 1 
     name lhipjoint
     direction 0.567725 -0.736092 0.368589 
     length 2.42353 
     axis 0 0 0  XYZ
  end
  begin
     id 2 
     name lfemur
     direction 0.34202 -0.939693 0  
     length 7.24894  
     axis 0 0 20  XYZ
    dof rx ry rz
    limits (-160.0 20.0)
           (-70.0 70.0)
           (-60.0 70.0)
  end
  begin
     id 3 
     name ltibia
     direction 0.34202 -0.939693 0   
     length 7.6997   
     axis 0 0 20   XYZ
    dof rx
    limits (-10.0 170.0)
  end
  begin
     id 4 
     name lfoot
     direction 0.100767 -0.276854 0.955614   
     length 2.37556   
     axis -90 7.62852e-016 20   XYZ
    dof rx rz
    limits (-45.0 90.0)
           (-70.0 20.0)
  end
  begin
     id 5 
     name ltoes
     direction 1.53592e-011 -4.21894e-011 1   
     length 1.18363   
     axis -90 7.62852e-016 20   XYZ
    dof rx
    limits (-90.0 20.0)
  end
  begin
     id 6 
     name rhipjoint
     direction -0.556459 -0.742938 0.372017   
     length 2.4012  
     axis 0 0 0  XYZ 
  end
  begin
     id 7 
     name rfemur
     direction -0.34202 -0.939693 0   
     length 7.5119   
     axis 0 0 -20   XYZ
    dof rx ry rz
    limits (-160.0 20.0)
           (-70.0 70.0)
           (-70.0 60.0)
  end
  begin
     id 8 
     name rtibia
     direction -0.34202 -0.939693 0   
     length 7.50155   
     axis 0 0 -20   XYZ
    dof rx
    limits (-10.0 170.0)
 end
 begin
     id 9 
     name rfoot
     direction -0.118427 -0.325376 0.938139   
     length 2.32487  
     axis -90 -7.62852e-016 -20   XYZ
    dof rx rz
    limits (-45.0 90.0)
           (-20.0 70.0)
  end
  begin
     id 10 
     name rtoes
     direction -1.53525e-011 -4.21868e-011 1   
     length 1.15233   
     axis -90 -7.62852e-016 -20   XYZ
    dof rx
    limits (-90.0 20.0)
  end
  begin
     id 11 
     name lowerback
     direction 0.0287568 0.999577 -0.00434502   
     length 2.15243   
     axis 0 0 0   XYZ
    dof rx ry rz
    limits (-20.0 45.0)
           (-30.0 30.0)
           (-30.0 30.0)
  end
  begin
     id 12 
     name upperback
     direction 0.0294009 0.99956 0.00404628   
     length 2.15427   
     axis 0 0 0   XYZ
    dof rx ry rz
    limits (-20.0 45.0)
           (-30.0 30.0)
           (-30.0 30.0)
  end
  begin
     id 13 
     name thorax
     direction 0.0151014 0.999868 0.0059419   
     length 2.14898   
     axis 0 0 0   XYZ
    dof rx ry rz
    limits (-20.0 45.0)
           (-30.0 30.0)
           (-30.0 30.0)
  end
  begin
     id 14 
     name lowerneck
     direction -0.0249197 0.989906 0.139515   
     length 1.6861   
     axis 0 0 0   XYZ
    dof rx ry rz
    limits (-20.0 45.0)
           (-30.0 30.0)
           (-30.0 30.0)
  end
  begin
     id 15 
     name upperneck
     direction 0.0438463 0.988795 -0.142693   
     length 1.71276   
     axis 0 0 0   XYZ
    dof rx ry rz
    limits (-20.0 45.0)
           (-30.0 30.0)
           (-30.0 30.0)
  end
  begin
     id 16
     name head
     direction 0.0148499 0.997845 -0.0639186  
     length 1.7209  
     axis 0 0 0   XYZ
    dof rx ry rz
    limits (-20.0 45.0)
           (-30.0 30.0)
           (-30.0 30.0)
  end
  begin
     id 17 
     name lclavicle
     direction 0.940298 0.323464 -0.105876  
     length 3.9048  
     axis 0 0 0   XYZ
    dof ry rz
    limits (-20.0 10.0)
           (0.0 20.0)
  end
  begin
     id 18 
     name lhumerus
     direction 1 -4.48954e-011 -4.9675e-028   
     length 4.6851   
     axis 180 -30 -90   XYZ
    dof rx ry rz
    limits (-60.0 90.0)
           (-90.0 90.0)
           (-90.0 90.0)
  end
  begin
     id 19
     name lradius
     direction 1 -4.48992e-011 -1.03359e-026   
     length 3.39626   
     axis 180 -30 -90   XYZ
    dof rx
    limits (-10.0 170.0)
  end
  begin
     id 20
     name lwrist
     direction 1 -4.48906e-011 -1.67336e-026   
     length 1.69813   
     axis 9.90442e-015 90 90   XYZ
    dof ry
    limits (-180.0 0.0)
 end
  begin
     id 21 
     name lhand
     direction 1 -4.49006e-011 -3.34673e-026   
     length 0.486078   
     axis 2.1355e-014 90 90   XYZ
    dof rx rz
    limits (-90.0 90.0)
           (-45.0 45.0)
  end
  begin
     id 22 
     name lfingers
     direction 1 -4.48992e-011 -6.69345e-026   
     length 0.391889   
     axis 4.27099e-014 90 90   XYZ
    dof rx
    limits (0.0 90.0)
  end
  begin
     id 23
     name lthumb
     direction 0.707107 -6.34926e-011 0.707107   
     length 0.562676   
     axis -90 45 2.85299e-015   XYZ
    dof rx rz
    limits (-45.0 45.0)
           (-45.0 45.0)
  end
  begin
     id 24 
     name rclavicle
     direction -0.882459 0.414895 -0.221648   
     length 3.44646  
     axis 0 0 0   XYZ 
    dof ry rz
    limits (-10.0 20.0)
           (-20.0 0.0)
  end
  begin
     id 25 
     name rhumerus
     direction -1 -4.48962e-011 -2.37984e-027  
     length 5.55576   
     axis 180 30 90   XYZ
    dof rx ry rz
    limits (-90.0 60.0)
           (-90.0 90.0)
           (-90.0 90.0)
  end
  begin
     id 26 
     name rradius
     direction -1 -4.48982e-011 -6.86791e-027   
     length 3.32774   
     axis 180 30 90   XYZ
    dof rx
    limits (-10.0 170.0)
  end
  begin
     id 27 
     name rwrist
     direction -1 -4.48961e-011 -1.67336e-026   
     length 1.66387   
     axis 9.90442e-015 -90 -90   XYZ
    dof ry
    limits (-180.0 0.0)
  end
  begin
     id 28
     name rhand
     direction -1 -4.4897e-011 -3.34673e-026   
     length 0.507628   
     axis 2.1355e-014 -90 -90   XYZ
    dof rx rz
    limits (-90.0 90.0)
           (-45.0 45.0)
  end
  begin
     id 29
     name rfingers
     direction -1 -4.48854e-011 -6.69345e-026   
     length 0.409263   
     axis 4.27099e-014 -90 -90   XYZ
    dof rx
    limits (0.0 90.0)
  end
  begin
     id 30
     name rthumb
     direction -0.707107 -6.34913e-011 0.707107   
     length 0.587622   
     axis -90 -45 -2.85299e-015   XYZ
    dof rx rz
    limits (-45.0 45.0)
           (-45.0 45.0)
  end
:hierarchy
  begin
    root lhipjoint rhipjoint lowerback
    lhipjoint lfemur
    lfemur ltibia
    ltibia lfoot
    lfoot ltoes
    rhipjoint rfemur
    rfemur rtibia
    rtibia rfoot
    rfoot rtoes
    lowerback upperback
    upperback thorax
    thorax lowerneck lclavicle rclavicle
    lowerneck upperneck
    upperneck head
    lclavicle lhumerus
    lhumerus lradius
    lradius lwrist
    lwrist lhand lthumb
    lhand lfingers
    rclavicle rhumerus
    rhumerus rradius
    rradius rwrist
    rwrist rhand rthumb
    rhand rfingers
  end

#!OML:ASF E:\motion texture\Top Level 1\Subject 1\Session 1\male.ASF
:FULLY-SPECIFIED
:DEGREES
131
root 35.7404 17.4963 5.19588 142.658 -83.3061 -134.653
lowerback -4.12459 1.37436 3.79101
upperback -2.05508 1.62431 1.76245
thorax 0.254693 0.769971 -0.245147
lowerneck -16.142 3.15364 -1.20107
upperneck 27.7751 3.88089 1.69829
head 11.6825 1.64693 1.36222
rclavicle -1.03213e-014 -1.60022e-014
rhumerus -29.1282 -18.187 -77.8347
rradius 18.2498
rwrist 11.7551
rhand -15.0293 -39.6696
rfingers 7.12502
rthumb 11.1365 -69.3541
lclavicle -1.03213e-014 -1.60022e-014
lhumerus -4.55699 5.3348 94.7493
lradius 67.2447
lwrist 39.6333
lhand 3.60643 32.0768
lfingers 7.12502
lthumb 29.0399 59.8337
rfemur -2.36834 0.871105 23.5113
rtibia 34.1567
rfoot -6.26207 -10.0223
rtoes -8.76654
lfemur -25.872 -1.50342 -10.4072
ltibia 15.88
lfoot -1.57402 8.52395
ltoes -1.40656
132
root 35.6133 17.5055 5.21821 142.748 -83.588 -134.858
lowerback -4.05492 1.31501 3.55543
upperback -1.9943 1.56005 1.68997
thorax 0.272268 0.741721 -0.191826
lowerneck -16.0982 3.20939 -1.15708
upperneck 27.8679 3.97522 1.5887
head 11.712 1.67635 1.32833
rclavicle -1.28713e-014 -4.27387e-015
rhumerus -30.0476 -20.832 -75.9441
rradius 17.2582
rwrist 14.3823
rhand -15.1242 -39.4444
rfingers 7.12502
rthumb 11.045 -69.1338
lclavicle -1.28713e-014 -4.27387e-015
lhumerus -4.57476 5.41848 94.7842
lradius 66.9174
lwrist 40.0029
lhand 4.30723 31.6764
lfingers 7.12502
lthumb 29.709 59.316
rfemur -3.06474 0.578229 23.1189
rtibia 35.7414
rfoot -5.33349 -10.1503
rtoes -8.36521
lfemur -25.3737 -1.57918 -10.8778
ltibia 15.9339
lfoot -1.67026 8.2109
ltoes -0.992118
133
root 35.4862 17.5153 5.24036 142.827 -83.8752 -135.055
lowerback -3.98069 1.25311 3.31923
upperback -1.9265 1.49213 1.61849
thorax 0.294664 0.711623 -0.137136
lowerneck -16.068 3.26533 -1.11393
upperneck 27.9723 4.07056 1.4783
head 11.749 1.70567 1.29489
rclavicle 1.40081e-014 1.72943e-014
rhumerus -31.0664 -23.4118 -73.9573
rradius 16.3816
rwrist 17.0163
rhand -15.2043 -39.1991
rfingers 7.12502
rthumb 10.9677 -68.8926
lclavicle 1.40081e-014 1.72943e-014
lhumerus -4.6086 5.5128 94.8108
lradius 66.5567
lwrist 40.3088
lhand 4.99893 31.2904
lfingers 7.12502
lthumb 30.369 58.8102
rfemur -3.80072 0.278847 22.7321
rtibia 37.3419
rfoot -4.40063 -10.2974
rtoes -7.87083
lfemur -24.8525 -1.6561 -11.3468
ltibia 15.963
lfoot -1.78653 7.89192
ltoes -0.601501
134
root 35.3593 17.5254 5.26225 142.885 -84.1679 -135.233
lowerback -3.90402 1.1881 3.08369
upperback -1.85924 1.41973 1.5483
thorax 0.315308 0.679026 -0.0815699
lowerneck -16.0202 3.32241 -1.07146
upperneck 28.0804 4.1672 1.36684
head 11.7841 1.73498 1.26094
rclavicle 7.62836e-015 -2.08724e-015
rhumerus -32.1955 -25.8666 -71.895
rradius 15.6243
rwrist 19.591
rhand -15.2655 -38.9448
rfingers 7.12502
rthumb 10.9087 -68.6415
lclavicle 7.62836e-015 -2.08724e-015
lhumerus -4.676 5.62045 94.8268
lradius 66.1643
lwrist 40.5475
lhand 5.66628 30.9174
lfingers 7.12502
lthumb 31.0053 58.3179
rfemur -4.57475 -0.0273082 22.3524
rtibia 38.9491
rfoot -3.47627 -10.4599
rtoes -7.28668
lfemur -24.3112 -1.73364 -11.813
ltibia 15.9666
lfoot -1.92057 7.56668
ltoes -0.224122
135
root 35.2327 17.536 5.28377 142.93 -84.4649 -135.4
lowerback -3.82438 1.12067 2.84807
upperback -1.78745 1.34376 1.47917
thorax 0.33917 0.644525 -0.0248428
lowerneck -15.9765 3.38012 -1.03009
upperneck 28.197 4.26488 1.25594
head 11.8236 1.76435 1.22769
rclavicle -6.83322e-017 1.04362e-014
rhumerus -33.4071 -28.154 -69.7939
rradius 14.9821
rwrist 22.0518
rhand -15.3048 -38.6797
rfingers 7.12502
rthumb 10.8708 -68.3783
lclavicle -6.83322e-017 1.04362e-014
lhumerus -4.7655 5.73909 94.8317
lradius 65.7379
lwrist 40.7149
lhand 6.3254 30.5665
lfingers 7.12502
lthumb 31.6333 57.8453
rfemur -5.38478 -0.337976 21.9812
rtibia 40.555
rfoot -2.57151 -10.6357
rtoes -6.63893
lfemur -23.7518 -1.81142 -12.2752
ltibia 15.947
lfoot -2.07283 7.23691
ltoes 0.133115
